<svg width="351" height="79" viewBox="0 0 351 79" fill="none" xmlns="http://www.w3.org/2000/svg">
<path d="M10.2099 42.8293L18.5217 70.1328H18.7835L25.8519 42.8293H36.7817L43.7846 70.1328H44.0464L52.62 42.8293H62.7644L49.6094 78.1069H37.1089L31.1531 53.419L24.9356 78.1069H12.6314L0 42.8293H10.2099Z" fill="black"/>
<path d="M100.96 42.8293V51.3138H77.2678V55.9707H98.5383V64.4552H77.2678V69.431H101.811V78.1069H67.6469V42.8293H100.96Z" fill="black"/>
<path d="M128.995 42.8293C131.176 42.8293 133.183 43.1695 135.016 43.85C136.892 44.5305 138.484 45.4874 139.793 46.7207C141.146 47.954 142.193 49.4425 142.935 51.1862C143.72 52.8874 144.113 54.7799 144.113 56.8638C144.113 58.9477 143.72 60.8402 142.935 62.5414C142.193 64.2425 141.146 65.6885 139.793 66.8793C138.484 68.0701 136.892 68.9845 135.016 69.6224C133.183 70.2603 131.176 70.5793 128.995 70.5793H117.214V78.1069H107.593V42.8293H128.995ZM117.214 62.031H128.602C130.303 62.031 131.7 61.6057 132.79 60.7552C133.881 59.9046 134.427 58.6075 134.427 56.8638C134.427 55.1626 133.881 53.823 132.79 52.8448C131.7 51.8667 130.303 51.3776 128.602 51.3776H117.214V62.031Z" fill="black"/>
<path d="M170.539 42.8293C172.72 42.8293 174.727 43.1695 176.56 43.85C178.436 44.5305 180.028 45.4874 181.337 46.7207C182.69 47.954 183.737 49.4425 184.479 51.1862C185.264 52.8874 185.657 54.7799 185.657 56.8638C185.657 59.5006 185.068 61.7971 183.89 63.7534C182.755 65.7098 181.163 67.2833 179.112 68.4741L184.61 78.1069H174.138L170.015 70.5793H158.758V78.1069H149.137V42.8293H170.539ZM158.758 62.031H170.146C171.847 62.031 173.244 61.6057 174.334 60.7552C175.425 59.9046 175.971 58.6075 175.971 56.8638C175.971 55.1626 175.425 53.823 174.334 52.8448C173.244 51.8667 171.847 51.3776 170.146 51.3776H158.758V62.031Z" fill="black"/>
<path d="M199.912 60.5C199.912 62.1161 200.174 63.5833 200.698 64.9017C201.265 66.1776 202.028 67.2833 202.988 68.219C203.992 69.1121 205.126 69.8138 206.392 70.3241C207.701 70.792 209.119 71.0259 210.646 71.0259C212.129 71.0259 213.525 70.792 214.834 70.3241C216.143 69.8138 217.278 69.1121 218.238 68.219C219.198 67.2833 219.939 66.1776 220.463 64.9017C221.03 63.5833 221.314 62.1161 221.314 60.5C221.314 58.8839 221.03 57.4379 220.463 56.1621C219.939 54.8437 219.198 53.7379 218.238 52.8448C217.278 51.9092 216.143 51.2075 214.834 50.7397C213.525 50.2293 212.129 49.9741 210.646 49.9741C209.119 49.9741 207.701 50.2293 206.392 50.7397C205.126 51.2075 203.992 51.9092 202.988 52.8448C202.028 53.7379 201.265 54.8437 200.698 56.1621C200.174 57.4379 199.912 58.8839 199.912 60.5ZM231 60.5C231 63.2644 230.433 65.7948 229.298 68.0914C228.208 70.3454 226.724 72.2805 224.848 73.8965C223.015 75.5126 220.856 76.7672 218.369 77.6603C215.925 78.5534 213.351 79 210.646 79C207.941 79 205.344 78.5534 202.857 77.6603C200.414 76.7672 198.254 75.5126 196.378 73.8965C194.546 72.2805 193.062 70.3454 191.928 68.0914C190.837 65.7948 190.291 63.2644 190.291 60.5C190.291 57.7356 190.837 55.2264 191.928 52.9724C193.062 50.6759 194.546 48.7195 196.378 47.1034C198.254 45.4874 200.414 44.2328 202.857 43.3397C205.344 42.4466 207.941 42 210.646 42C213.351 42 215.925 42.4466 218.369 43.3397C220.856 44.2328 223.015 45.4874 224.848 47.1034C226.724 48.7195 228.208 50.6759 229.298 52.9724C230.433 55.2264 231 57.7356 231 60.5Z" fill="black"/>
<path d="M17.216 12.16C16.192 11.4133 15.1253 10.88 14.016 10.56C12.9067 10.24 11.6587 10.08 10.272 10.08C9.52533 10.08 8.90667 10.1227 8.416 10.208C7.94667 10.272 7.57333 10.3787 7.296 10.528C7.01867 10.656 6.82667 10.8053 6.72 10.976C6.63467 11.1467 6.592 11.328 6.592 11.52C6.592 11.8827 6.76267 12.128 7.104 12.256C7.44533 12.3627 7.88267 12.448 8.416 12.512L13.568 13.088C15.5093 13.3227 17.0453 13.8667 18.176 14.72C19.3067 15.5733 19.872 16.8533 19.872 18.56C19.872 19.584 19.6267 20.4693 19.136 21.216C18.6667 21.9413 18.016 22.5493 17.184 23.04C16.352 23.5093 15.36 23.8613 14.208 24.096C13.0773 24.3307 11.8507 24.448 10.528 24.448C8.69333 24.448 7.04 24.224 5.568 23.776C4.096 23.328 2.63467 22.5493 1.184 21.44L3.392 17.792C4.608 18.6453 5.824 19.2853 7.04 19.712C8.27733 20.1387 9.57867 20.352 10.944 20.352C12.16 20.352 13.184 20.2133 14.016 19.936C14.8693 19.6587 15.296 19.2213 15.296 18.624C15.296 18.3253 15.2213 18.0907 15.072 17.92C14.9227 17.7493 14.5707 17.6427 14.016 17.6L7.936 16.896C6.05867 16.6827 4.58667 16.1707 3.52 15.36C2.47467 14.528 1.952 13.2587 1.952 11.552C1.952 10.592 2.16533 9.76 2.592 9.056C3.04 8.33067 3.63733 7.73333 4.384 7.264C5.152 6.79467 6.03733 6.45333 7.04 6.24C8.04267 6.00533 9.12 5.888 10.272 5.888C11.9787 5.888 13.5893 6.09067 15.104 6.496C16.6187 6.88 18.08 7.616 19.488 8.704L17.216 12.16ZM40.2685 6.304V10.528H33.3885V24H28.6525V10.528H21.7725V6.304H40.2685ZM47.2668 6.304V15.36C47.2668 16.9387 47.6188 18.1653 48.3228 19.04C49.0268 19.8933 50.1468 20.32 51.6828 20.32C53.1974 20.32 54.3068 19.8933 55.0108 19.04C55.7148 18.1653 56.0668 16.9387 56.0668 15.36V6.304H60.8028V15.328C60.8028 16.8 60.5894 18.1013 60.1628 19.232C59.7361 20.3627 59.1281 21.312 58.3388 22.08C57.5494 22.848 56.5894 23.4347 55.4588 23.84C54.3281 24.2453 53.0694 24.448 51.6828 24.448C50.2961 24.448 49.0374 24.2453 47.9068 23.84C46.7761 23.4347 45.8161 22.848 45.0268 22.08C44.2374 21.312 43.6294 20.3627 43.2028 19.232C42.7761 18.1013 42.5628 16.8 42.5628 15.328V6.304H47.2668ZM72.941 6.304C74.1143 6.304 75.2663 6.51733 76.397 6.944C77.549 7.37067 78.573 7.97867 79.469 8.768C80.365 9.536 81.0903 10.464 81.645 11.552C82.1997 12.64 82.477 13.8347 82.477 15.136C82.477 16.4373 82.1997 17.632 81.645 18.72C81.1117 19.808 80.397 20.7467 79.501 21.536C78.605 22.304 77.581 22.912 76.429 23.36C75.2983 23.7867 74.1357 24 72.941 24H63.629V6.304H72.941ZM68.333 19.68H73.005C73.6663 19.68 74.285 19.5627 74.861 19.328C75.437 19.0933 75.9383 18.7733 76.365 18.368C76.813 17.9627 77.1543 17.4827 77.389 16.928C77.645 16.3733 77.773 15.776 77.773 15.136C77.773 14.496 77.645 13.8987 77.389 13.344C77.1543 12.7893 76.813 12.3093 76.365 11.904C75.9383 11.4773 75.437 11.1467 74.861 10.912C74.285 10.6773 73.6663 10.56 73.005 10.56H68.333V19.68ZM101.542 6.304V10.56H89.958V12.896H100.358V17.152H89.958V19.648H101.958V24H85.254V6.304H101.542ZM109.073 6.304L118.545 16.992V6.304H123.217V24H118.897L109.425 13.312V24H104.785V6.304H109.073ZM144.175 6.304V10.528H137.295V24H132.559V10.528H125.679V6.304H144.175ZM147.589 9.696C147.205 9.48267 146.917 9.16267 146.725 8.736C146.533 8.30933 146.437 7.88267 146.437 7.456C146.437 6.752 146.704 6.15467 147.237 5.664C147.77 5.17333 148.421 4.928 149.189 4.928C149.808 4.928 150.373 5.152 150.885 5.6C151.397 6.02667 151.653 6.656 151.653 7.488C151.653 7.78667 151.578 8.08533 151.429 8.384L149.541 12.608L146.949 12.096L147.589 9.696ZM169.747 12.16C168.723 11.4133 167.657 10.88 166.547 10.56C165.438 10.24 164.19 10.08 162.803 10.08C162.057 10.08 161.438 10.1227 160.947 10.208C160.478 10.272 160.105 10.3787 159.827 10.528C159.55 10.656 159.358 10.8053 159.251 10.976C159.166 11.1467 159.123 11.328 159.123 11.52C159.123 11.8827 159.294 12.128 159.635 12.256C159.977 12.3627 160.414 12.448 160.947 12.512L166.099 13.088C168.041 13.3227 169.577 13.8667 170.707 14.72C171.838 15.5733 172.403 16.8533 172.403 18.56C172.403 19.584 172.158 20.4693 171.667 21.216C171.198 21.9413 170.547 22.5493 169.715 23.04C168.883 23.5093 167.891 23.8613 166.739 24.096C165.609 24.3307 164.382 24.448 163.059 24.448C161.225 24.448 159.571 24.224 158.099 23.776C156.627 23.328 155.166 22.5493 153.715 21.44L155.923 17.792C157.139 18.6453 158.355 19.2853 159.571 19.712C160.809 20.1387 162.11 20.352 163.475 20.352C164.691 20.352 165.715 20.2133 166.547 19.936C167.401 19.6587 167.827 19.2213 167.827 18.624C167.827 18.3253 167.753 18.0907 167.603 17.92C167.454 17.7493 167.102 17.6427 166.547 17.6L160.467 16.896C158.59 16.6827 157.118 16.1707 156.051 15.36C155.006 14.528 154.483 13.2587 154.483 11.552C154.483 10.592 154.697 9.76 155.123 9.056C155.571 8.33067 156.169 7.73333 156.915 7.264C157.683 6.79467 158.569 6.45333 159.571 6.24C160.574 6.00533 161.651 5.888 162.803 5.888C164.51 5.888 166.121 6.09067 167.635 6.496C169.15 6.88 170.611 7.616 172.019 8.704L169.747 12.16ZM194.374 6.304C195.441 6.304 196.422 6.47467 197.318 6.816C198.236 7.15733 199.014 7.63733 199.654 8.256C200.316 8.87467 200.828 9.62133 201.19 10.496C201.574 11.3493 201.766 12.2987 201.766 13.344C201.766 14.3893 201.574 15.3387 201.19 16.192C200.828 17.0453 200.316 17.7707 199.654 18.368C199.014 18.9653 198.236 19.424 197.318 19.744C196.422 20.064 195.441 20.224 194.374 20.224H188.614V24H183.91V6.304H194.374ZM188.614 15.936H194.182C195.014 15.936 195.697 15.7227 196.23 15.296C196.764 14.8693 197.03 14.2187 197.03 13.344C197.03 12.4907 196.764 11.8187 196.23 11.328C195.697 10.8373 195.014 10.592 194.182 10.592H188.614V15.936ZM208.927 6.304V19.744H220.607V24H204.223V6.304H208.927ZM230.174 17.312H236.414L233.726 10.496H232.99L230.174 17.312ZM236.83 6.304L244.35 24H239.358L238.238 21.408H228.446L227.358 24H222.302L229.982 6.304H236.83ZM261.8 6.304V10.528H254.92V24H250.184V10.528H243.304V6.304H261.8ZM264.254 6.304H280.734V10.56H268.958V13.28H279.326V17.536H268.958V24H264.254V6.304ZM287.705 15.168C287.705 15.9787 287.833 16.7147 288.089 17.376C288.366 18.016 288.74 18.5707 289.209 19.04C289.7 19.488 290.254 19.84 290.873 20.096C291.513 20.3307 292.206 20.448 292.953 20.448C293.678 20.448 294.361 20.3307 295.001 20.096C295.641 19.84 296.196 19.488 296.665 19.04C297.134 18.5707 297.497 18.016 297.753 17.376C298.03 16.7147 298.169 15.9787 298.169 15.168C298.169 14.3573 298.03 13.632 297.753 12.992C297.497 12.3307 297.134 11.776 296.665 11.328C296.196 10.8587 295.641 10.5067 295.001 10.272C294.361 10.016 293.678 9.888 292.953 9.888C292.206 9.888 291.513 10.016 290.873 10.272C290.254 10.5067 289.7 10.8587 289.209 11.328C288.74 11.776 288.366 12.3307 288.089 12.992C287.833 13.632 287.705 14.3573 287.705 15.168ZM302.905 15.168C302.905 16.5547 302.628 17.824 302.073 18.976C301.54 20.1067 300.814 21.0773 299.897 21.888C299.001 22.6987 297.945 23.328 296.729 23.776C295.534 24.224 294.276 24.448 292.953 24.448C291.63 24.448 290.361 24.224 289.145 23.776C287.95 23.328 286.894 22.6987 285.977 21.888C285.081 21.0773 284.356 20.1067 283.801 18.976C283.268 17.824 283.001 16.5547 283.001 15.168C283.001 13.7813 283.268 12.5227 283.801 11.392C284.356 10.24 285.081 9.25867 285.977 8.448C286.894 7.63733 287.95 7.008 289.145 6.56C290.361 6.112 291.63 5.888 292.953 5.888C294.276 5.888 295.534 6.112 296.729 6.56C297.945 7.008 299.001 7.63733 299.897 8.448C300.814 9.25867 301.54 10.24 302.073 11.392C302.628 12.5227 302.905 13.7813 302.905 15.168ZM316.218 6.304C317.285 6.304 318.266 6.47467 319.162 6.816C320.079 7.15733 320.858 7.63733 321.498 8.256C322.159 8.87467 322.671 9.62133 323.034 10.496C323.418 11.3493 323.61 12.2987 323.61 13.344C323.61 14.6667 323.322 15.8187 322.746 16.8C322.191 17.7813 321.413 18.5707 320.41 19.168L323.098 24H317.978L315.962 20.224H310.458V24H305.754V6.304H316.218ZM310.458 15.936H316.026C316.858 15.936 317.541 15.7227 318.074 15.296C318.607 14.8693 318.874 14.2187 318.874 13.344C318.874 12.4907 318.607 11.8187 318.074 11.328C317.541 10.8373 316.858 10.592 316.026 10.592H310.458V15.936ZM331.988 6.304L337.492 18.112H337.62L343.572 6.304H349.236V24H344.532V12.864L339.38 24H335.604L330.548 12.864V24H325.972V6.304H331.988Z" fill="url(#paint0_linear_1018_13)"/>
<defs>
<linearGradient id="paint0_linear_1018_13" x1="1.96136e-06" y1="16" x2="351" y2="16" gradientUnits="userSpaceOnUse">
<stop stop-color="#EC2853"/>
<stop offset="1" stop-color="#F4913F"/>
</linearGradient>
</defs>
</svg>
